/* XPM */
static char * font_sup_xpm[] = {
"21 21 3 1",
" 	c None",
".	c #427AAA",
"+	c #000000",
"                     ",
"                     ",
"              ...    ",
"                .    ",
"                .    ",
"     +++++++   .     ",
"    +++   +++ .      ",
"    +++       ...    ",
"    +++              ",
"     ++++++          ",
"      ++++++         ",
"          +++        ",
"          +++        ",
"    +++   +++        ",
"     ++++++          ",
"                     ",
"                     ",
"                     ",
"                     ",
"                     ",
"                     "};
