/* XPM */
static char * font_sub_xpm[] = {
"21 21 3 1",
" 	c None",
".	c #000000",
"+	c #427AAA",
"                     ",
"                     ",
"                     ",
"                     ",
"                     ",
"     .......         ",
"    ...   ...        ",
"    ...              ",
"    ...              ",
"     ......          ",
"      ......         ",
"          ...        ",
"          ... +++    ",
"    ...   ...   +    ",
"     ......     +    ",
"               +     ",
"              +      ",
"              +++    ",
"                     ",
"                     ",
"                     "};
