/* XPM */
static char * image_xpm[] = {
"24 24 126 2",
"  	c None",
". 	c #2B2B2B",
"+ 	c #000000",
"@ 	c #5B5B5B",
"# 	c #F5F5DC",
"$ 	c #9E9A87",
"% 	c #C2C2AD",
"& 	c #787566",
"* 	c #625C4B",
"= 	c #928F7D",
"- 	c #8C836E",
"; 	c #DEDEC7",
"> 	c #8A8878",
", 	c #68614F",
"' 	c #595344",
") 	c #928D79",
"! 	c #7A7260",
"~ 	c #A2A190",
"{ 	c #655E4D",
"] 	c #645D4D",
"^ 	c #D2D2BC",
"/ 	c #807C6B",
"( 	c #877E68",
"_ 	c #706957",
": 	c #7B786A",
"< 	c #DDDDC7",
"[ 	c #5E5847",
"} 	c #6E6754",
"| 	c #665F4E",
"1 	c #5A5445",
"2 	c #9B9A90",
"3 	c #9B9483",
"4 	c #8E8674",
"5 	c #AFABA0",
"6 	c #9F998B",
"7 	c #7C7562",
"8 	c #6C6552",
"9 	c #645D4C",
"0 	c #605949",
"a 	c #5C5546",
"b 	c #595243",
"c 	c #403C31",
"d 	c #D1D1BC",
"e 	c #76766A",
"f 	c #A3A298",
"g 	c #9D9D9D",
"h 	c #E1E0DE",
"i 	c #CCC9C5",
"j 	c #CACACA",
"k 	c #E3E3E1",
"l 	c #9D988B",
"m 	c #696251",
"n 	c #575142",
"o 	c #4C4739",
"p 	c #484336",
"q 	c #B2B19F",
"r 	c #4E4E4E",
"s 	c #8C8C8C",
"t 	c #434240",
"u 	c #676662",
"v 	c #8B8A8A",
"w 	c #DAD9D6",
"x 	c #AAAAA9",
"y 	c #5D5D5D",
"z 	c #B9B9B9",
"A 	c #98948B",
"B 	c #645E4E",
"C 	c #504A3C",
"D 	c #413C30",
"E 	c #3C382C",
"F 	c #939282",
"G 	c #313131",
"H 	c #555555",
"I 	c #424242",
"J 	c #625F57",
"K 	c #8F897C",
"L 	c #8C8572",
"M 	c #A9A59D",
"N 	c #AAAAAA",
"O 	c #C6C6C4",
"P 	c #858075",
"Q 	c #5B5546",
"R 	c #494437",
"S 	c #3E3A2E",
"T 	c #777668",
"U 	c #1E1E1E",
"V 	c #404040",
"W 	c #575757",
"X 	c #66635C",
"Y 	c #716B58",
"Z 	c #7C7561",
"` 	c #7E796B",
" .	c #736D5E",
"..	c #5D5748",
"+.	c #4F493B",
"@.	c #433F32",
"#.	c #3A362B",
"$.	c #747265",
"%.	c #545454",
"&.	c #6E6E6D",
"*.	c #626057",
"=.	c #696250",
"-.	c #6C6553",
";.	c #5B5545",
">.	c #454237",
",.	c #47433A",
"'.	c #5F5C4F",
").	c #B5B4A2",
"!.	c #625E51",
"~.	c #4E493C",
"{.	c #4B4739",
"].	c #524D3E",
"^.	c #504B3D",
"/.	c #36332A",
"(.	c #545149",
"_.	c #514E44",
":.	c #49473B",
"<.	c #6D6C60",
"[.	c #1B1914",
"}.	c #14130F",
"|.	c #1E1C18",
"1.	c #38352F",
"2.	c #555248",
"3.	c #57544A",
"4.	c #3A372D",
"5.	c #E9E9D1",
"                    .                           ",
"                  . +                           ",
"                    + . @ @                     ",
"                @ @   +     @ @                 ",
"            @ @                 @ @             ",
"        @ @                         @ @         ",
"    + + + + + + + + + + + + + + + + + + + + +   ",
"    + # # # # $ % # # # # # # # # # # & * # +   ",
"    + # # # # = - ; # # # # # # # # > , ' # +   ",
"    + # # # # # ) ! # # # # # # # ~ { ] ^ # +   ",
"    + # # # # # / ( _ : # # # < [ } | 1 ^ # +   ",
"    + # # # # # 2 3 4 5 6 7 8 9 0 a b c d # +   ",
"    + # d . e f g h i j k l m n o p p q # # +   ",
"    + # r s t u v w x y z A B C D E F # # # +   ",
"    + # G H I J K L M N O P Q R S T # # # # +   ",
"    + # U V W X Y Z 7 `  ...+.@.#.$.# # # # +   ",
"    + # ^ %.&.*.Q =.-.| ;.>.,.S '.# # # # # +   ",
"    + # # ).!.~.{.].^.c /.(._.:.# # # # # # +   ",
"    + # # # # <.[.}.|.1.2.3.4.5.# # # # # # +   ",
"    + # # # # # # # # # # # # # # # # # # # +   ",
"    + + + + + + + + + + + + + + + + + + + + +   ",
"                                                ",
"                                                ",
"                                                "};
