/* XPM */
static char * list_dt_xpm[] = {
"24 24 2 1",
" 	c None",
".	c #000000",
"                        ",
"                        ",
"                        ",
"                        ",
"                        ",
"                        ",
"  .....      .......... ",
"  .......    .......... ",
"  ..    ..       ..     ",
"  ..     ..      ..     ",
"  ..     ..      ..     ",
"  ..     ..      ..     ",
"  ..     ..      ..     ",
"  ..     ..      ..     ",
"  ..    ..       ..     ",
"  .......        ..     ",
"  .....          ..     ",
"                        ",
"                        ",
"                        ",
"                        ",
"                        ",
"                        ",
"                        "};
