/* XPM */
static char * list_li_xpm[] = {
"24 24 3 1",
" 	c None",
".	c #000000",
"+	c #427AAA",
"                        ",
"                        ",
"                        ",
"                        ",
"  ....                  ",
"  .... ..............   ",
"  ....                  ",
"                        ",
"                        ",
"                        ",
"  ....                  ",
"  .... ++++++++++++++   ",
"  ....                  ",
"                        ",
"                        ",
"                        ",
"  ....                  ",
"  .... ..............   ",
"  ....                  ",
"                        ",
"                        ",
"                        ",
"                        ",
"                        "};
