/* XPM */
static char * table_table_xpm[] = {
"21 21 7 2",
"  	g None",
". 	g #000000",
"+ 	g #E70319",
"@ 	g #B8E848",
"# 	g #4B96B5",
"$ 	g #962D6A",
"% 	g #FFFFFF",
"% % % % % % % % % % % % % % % % % % % % % ",
"% + + + + + + . + + + + + + . + + + + + % ",
"% + + + + + + . + + + + + + . + + + + + % ",
"% + + + + + + . + + + + + + . + + + + + % ",
"% . . . . . . . . . . . . . . . . . . . % ",
"% @ @ @ @ @ @ . # # # # # # . $ $ $ $ $ % ",
"% @ @ @ @ @ @ . # # # # # # . $ $ $ $ $ % ",
"% @ @ @ @ @ @ . # # # # # # . $ $ $ $ $ % ",
"% . . . . . . . . . . . . . . . . . . . % ",
"% @ @ @ @ @ @ . # # # # # # . $ $ $ $ $ % ",
"% @ @ @ @ @ @ . # # # # # # . $ $ $ $ $ % ",
"% @ @ @ @ @ @ . # # # # # # . $ $ $ $ $ % ",
"% . . . . . . . . . . . . . . . . . . . % ",
"% @ @ @ @ @ @ . # # # # # # . $ $ $ $ $ % ",
"% @ @ @ @ @ @ . # # # # # # . $ $ $ $ $ % ",
"% @ @ @ @ @ @ . # # # # # # . $ $ $ $ $ % ",
"% . . . . . . . . . . . . . . . . . . . % ",
"% @ @ @ @ @ @ . # # # # # # . $ $ $ $ $ % ",
"% @ @ @ @ @ @ . # # # # # # . $ $ $ $ $ % ",
"% @ @ @ @ @ @ . # # # # # # . $ $ $ $ $ % ",
"% % % % % % % % % % % % % % % % % % % % % "};
