/* XPM */
static char*tag_a_xpm[]={
"22 22 4 1",
"a c #808080",
"b c #706cdc",
"# c #000000",
". c None",
"......................",
"......................",
"......................",
"..........##..........",
".........#..#.........",
".........#..#.........",
"..........##..........",
"......#...##...a......",
"......##########......",
"......a...##...#......",
"..........##..........",
"b..b#.b..b##b..b.#b..b",
"bbbb#bbbbb##bbbbb#bbbb",
"bbbb#bbbbb##bbbbb#bbbb",
"..b.a#b..b##..b.#a.b..",
".b..b###b.##.b###.b..b",
"......a########a......",
".........####.........",
"..........##..........",
"......................",
"......................",
"......................"};
