/* XPM */
static char * font_tt_xpm[] = {
"24 24 2 1",
" 	c None",
".	c #000000",
"                        ",
"                        ",
"                        ",
"                        ",
"                        ",
"                        ",
"  ........   ........   ",
"  ........   ........   ",
"     ..         ..      ",
"     ..         ..      ",
"     ..         ..      ",
"     ..         ..      ",
"     ..         ..      ",
"     ..         ..      ",
"     ..         ..      ",
"     ..         ..      ",
"     ..         ..      ",
"                        ",
"                        ",
"                        ",
"                        ",
"                        ",
"                        ",
"                        "};
